<svg xmlns="http://www.w3.org/2000/svg" viewBox="0 0 16 16" width="512" height="512" shape-rendering="crispEdges">
  <rect x="0" y="0" width="16" height="16" fill="#C8E1FF"/>
  <rect x="5" y="1" width="1" height="1" fill="#1E40AF"/>
  <rect x="6" y="1" width="1" height="1" fill="#1E40AF"/>
  <rect x="7" y="1" width="1" height="1" fill="#FBBF24"/>
  <rect x="8" y="1" width="1" height="1" fill="#FBBF24"/>
  <rect x="9" y="1" width="1" height="1" fill="#1E40AF"/>
  <rect x="10" y="1" width="1" height="1" fill="#1E40AF"/>
  <rect x="4" y="2" width="1" height="1" fill="#1E40AF"/>
  <rect x="5" y="2" width="1" height="1" fill="#1E40AF"/>
  <rect x="6" y="2" width="1" height="1" fill="#1E40AF"/>
  <rect x="7" y="2" width="1" height="1" fill="#1E40AF"/>
  <rect x="8" y="2" width="1" height="1" fill="#1E40AF"/>
  <rect x="9" y="2" width="1" height="1" fill="#1E40AF"/>
  <rect x="10" y="2" width="1" height="1" fill="#1E40AF"/>
  <rect x="11" y="2" width="1" height="1" fill="#1E40AF"/>
  <rect x="3" y="3" width="1" height="1" fill="#1E40AF"/>
  <rect x="4" y="3" width="1" height="1" fill="#93C5FD"/>
  <rect x="5" y="3" width="1" height="1" fill="#FDE68A"/>
  <rect x="6" y="3" width="1" height="1" fill="#FDE68A"/>
  <rect x="7" y="3" width="1" height="1" fill="#FDE68A"/>
  <rect x="8" y="3" width="1" height="1" fill="#FDE68A"/>
  <rect x="9" y="3" width="1" height="1" fill="#FDE68A"/>
  <rect x="10" y="3" width="1" height="1" fill="#FDE68A"/>
  <rect x="11" y="3" width="1" height="1" fill="#1E40AF"/>
  <rect x="12" y="3" width="1" height="1" fill="#1E40AF"/>
  <rect x="3" y="4" width="1" height="1" fill="#1E40AF"/>
  <rect x="4" y="4" width="1" height="1" fill="#FDE68A"/>
  <rect x="5" y="4" width="1" height="1" fill="#93C5FD"/>
  <rect x="6" y="4" width="1" height="1" fill="#1E3A5F"/>
  <rect x="7" y="4" width="1" height="1" fill="#FDE68A"/>
  <rect x="8" y="4" width="1" height="1" fill="#FDE68A"/>
  <rect x="9" y="4" width="1" height="1" fill="#93C5FD"/>
  <rect x="10" y="4" width="1" height="1" fill="#1E3A5F"/>
  <rect x="11" y="4" width="1" height="1" fill="#FDE68A"/>
  <rect x="12" y="4" width="1" height="1" fill="#1E40AF"/>
  <rect x="4" y="5" width="1" height="1" fill="#FDE68A"/>
  <rect x="5" y="5" width="1" height="1" fill="#2563EB"/>
  <rect x="6" y="5" width="1" height="1" fill="#2563EB"/>
  <rect x="7" y="5" width="1" height="1" fill="#FDE68A"/>
  <rect x="8" y="5" width="1" height="1" fill="#FDE68A"/>
  <rect x="9" y="5" width="1" height="1" fill="#2563EB"/>
  <rect x="10" y="5" width="1" height="1" fill="#2563EB"/>
  <rect x="11" y="5" width="1" height="1" fill="#FDE68A"/>
  <rect x="12" y="5" width="1" height="1" fill="#1E40AF"/>
  <rect x="4" y="6" width="1" height="1" fill="#FDE68A"/>
  <rect x="5" y="6" width="1" height="1" fill="#FDE68A"/>
  <rect x="6" y="6" width="1" height="1" fill="#FDE68A"/>
  <rect x="7" y="6" width="1" height="1" fill="#D97706"/>
  <rect x="8" y="6" width="1" height="1" fill="#D97706"/>
  <rect x="9" y="6" width="1" height="1" fill="#FDE68A"/>
  <rect x="10" y="6" width="1" height="1" fill="#FDE68A"/>
  <rect x="11" y="6" width="1" height="1" fill="#FDE68A"/>
  <rect x="12" y="6" width="1" height="1" fill="#1E40AF"/>
  <rect x="6" y="7" width="1" height="1" fill="#DBEAFE"/>
  <rect x="7" y="7" width="1" height="1" fill="#FDE68A"/>
  <rect x="8" y="7" width="1" height="1" fill="#FDE68A"/>
  <rect x="9" y="7" width="1" height="1" fill="#DBEAFE"/>
  <rect x="12" y="7" width="1" height="1" fill="#1E40AF"/>
  <rect x="4" y="8" width="1" height="1" fill="#2563EB"/>
  <rect x="5" y="8" width="1" height="1" fill="#2563EB"/>
  <rect x="6" y="8" width="1" height="1" fill="#DBEAFE"/>
  <rect x="7" y="8" width="1" height="1" fill="#FBBF24"/>
  <rect x="8" y="8" width="1" height="1" fill="#FBBF24"/>
  <rect x="9" y="8" width="1" height="1" fill="#DBEAFE"/>
  <rect x="10" y="8" width="1" height="1" fill="#2563EB"/>
  <rect x="11" y="8" width="1" height="1" fill="#2563EB"/>
  <rect x="12" y="8" width="1" height="1" fill="#1E40AF"/>
  <rect x="2" y="9" width="1" height="1" fill="#FDE68A"/>
  <rect x="3" y="9" width="1" height="1" fill="#2563EB"/>
  <rect x="4" y="9" width="1" height="1" fill="#2563EB"/>
  <rect x="5" y="9" width="1" height="1" fill="#2563EB"/>
  <rect x="6" y="9" width="1" height="1" fill="#DBEAFE"/>
  <rect x="7" y="9" width="1" height="1" fill="#DBEAFE"/>
  <rect x="8" y="9" width="1" height="1" fill="#DBEAFE"/>
  <rect x="9" y="9" width="1" height="1" fill="#DBEAFE"/>
  <rect x="10" y="9" width="1" height="1" fill="#2563EB"/>
  <rect x="11" y="9" width="1" height="1" fill="#2563EB"/>
  <rect x="12" y="9" width="1" height="1" fill="#2563EB"/>
  <rect x="13" y="9" width="1" height="1" fill="#FDE68A"/>
  <rect x="2" y="10" width="1" height="1" fill="#FDE68A"/>
  <rect x="4" y="10" width="1" height="1" fill="#2563EB"/>
  <rect x="5" y="10" width="1" height="1" fill="#2563EB"/>
  <rect x="6" y="10" width="1" height="1" fill="#2563EB"/>
  <rect x="7" y="10" width="1" height="1" fill="#2563EB"/>
  <rect x="8" y="10" width="1" height="1" fill="#2563EB"/>
  <rect x="9" y="10" width="1" height="1" fill="#2563EB"/>
  <rect x="10" y="10" width="1" height="1" fill="#2563EB"/>
  <rect x="11" y="10" width="1" height="1" fill="#2563EB"/>
  <rect x="13" y="10" width="1" height="1" fill="#FDE68A"/>
  <rect x="5" y="11" width="1" height="1" fill="#1E40AF"/>
  <rect x="6" y="11" width="1" height="1" fill="#1E40AF"/>
  <rect x="7" y="11" width="1" height="1" fill="#1E40AF"/>
  <rect x="8" y="11" width="1" height="1" fill="#1E40AF"/>
  <rect x="9" y="11" width="1" height="1" fill="#1E40AF"/>
  <rect x="10" y="11" width="1" height="1" fill="#1E40AF"/>
  <rect x="6" y="12" width="1" height="1" fill="#1E40AF"/>
  <rect x="7" y="12" width="1" height="1" fill="#1E40AF"/>
  <rect x="8" y="12" width="1" height="1" fill="#1E40AF"/>
  <rect x="9" y="12" width="1" height="1" fill="#1E40AF"/>
  <rect x="5" y="13" width="1" height="1" fill="#1D4ED8"/>
  <rect x="6" y="13" width="1" height="1" fill="#1D4ED8"/>
  <rect x="7" y="13" width="1" height="1" fill="#1D4ED8"/>
  <rect x="8" y="13" width="1" height="1" fill="#1D4ED8"/>
  <rect x="9" y="13" width="1" height="1" fill="#1D4ED8"/>
  <rect x="10" y="13" width="1" height="1" fill="#1D4ED8"/>
</svg>